<svg id="Capa_1" enable-background="new 0 0 512 512" height="512" viewBox="0 0 512 512" width="512" xmlns="http://www.w3.org/2000/svg"><g><path d="m498.987 173.767-110.867-110.866-29.194-15.175-11.458-25.477-9.235-9.235c-17.351-17.351-45.483-17.351-62.834 0l-262.386 262.384c-17.351 17.351-17.351 45.483 0 62.834l9.235 9.235 30.322 16.303 10.331 24.35 110.866 110.866c17.351 17.351 45.483 17.351 62.834 0l262.385-262.385c17.352-17.351 17.352-45.482.001-62.834z" fill="#80b4fb"/><path d="m498.987 173.767-110.867-110.866-25.477-17.991-15.175-22.661-9.235-9.235c-9.222-9.222-21.49-13.543-33.565-12.962l110.526 110.526c40.871 40.871 40.871 107.136 0 148.007l-43.253 43.253c15.248 3.776-3.299 43.615 7.962 53.849l119.084-119.084c17.351-17.353 17.351-45.485 0-62.836z" fill="#61a2f9"/><path d="m195.394 478.383c-8.129 8.129-18.624 12.45-29.269 12.962l7.642 7.642c17.351 17.351 45.483 17.351 62.834 0l72.886-72.886c-10.234-11.261-46.991 4.204-50.766-11.044z" fill="#61a2f9"/><path d="m176.439-24.78h57.491v459.93h-57.491z" fill="#617881" transform="matrix(-.707 -.707 .707 -.707 205.185 495.359)"/><path d="m355.359 18.98h14.569v57.491h-14.569z" fill="#475959" transform="matrix(.707 -.707 .707 .707 72.469 270.406)"/><path d="m337.979 195.696 29.14 29.14c.373.373.977.373 1.349 0l59.629-59.629c.373-.373.373-.977 0-1.349l-29.14-29.14c-.373-.373-.977-.373-1.349 0l-59.629 59.629c-.372.372-.372.976 0 1.349z" fill="#f1f4f6"/><g fill="#617881"><path d="m266.163 286.489c5.613 5.613 14.713 5.613 20.326 0l20.326-20.326c5.613-5.613 5.613-14.713 0-20.326-5.613-5.613-14.713-5.613-20.326 0l-20.326 20.326c-5.613 5.613-5.613 14.713 0 20.326z"/><path d="m205.184 347.468c5.613 5.613 14.713 5.613 20.326 0l20.326-20.326c5.613-5.613 5.613-14.713 0-20.326-5.613-5.613-14.713-5.613-20.326 0l-20.326 20.326c-5.612 5.613-5.612 14.713 0 20.326z"/><path d="m144.206 408.447c5.613 5.613 14.713 5.613 20.326 0l20.326-20.326c5.613-5.613 5.613-14.713 0-20.326-5.613-5.613-14.713-5.613-20.326 0l-20.326 20.326c-5.613 5.612-5.613 14.713 0 20.326z"/></g><circle cx="349.41" cy="392.525" fill="#ffd064" r="93.423"/><circle cx="349.41" cy="392.525" fill="#ffc250" r="64.678"/><path d="m373.34 406.902c0-12.188-9.915-22.104-22.104-22.104h-3.654c-3.668 0-6.651-2.983-6.651-6.651s2.983-6.651 6.651-6.651h3.654c1.856 0 3.577.745 4.849 2.099 2.923 3.111 7.811 3.263 10.922.342 3.11-2.922 3.264-7.811.342-10.922-2.788-2.968-6.343-5.087-10.213-6.164v-2.978c0-4.267-3.459-7.726-7.726-7.726s-7.726 3.459-7.726 7.726v2.969c-9.333 2.588-16.204 11.158-16.204 21.304 0 12.188 9.915 22.104 22.104 22.104h3.654c3.667 0 6.651 2.983 6.651 6.651s-2.983 6.651-6.651 6.651h-3.654c-1.909 0-3.666-.783-4.946-2.204-2.856-3.171-7.741-3.426-10.912-.57s-3.426 7.741-.57 10.912c2.841 3.153 6.51 5.394 10.529 6.51v2.975c0 4.267 3.459 7.726 7.726 7.726s7.726-3.459 7.726-7.726v-2.969c9.332-2.588 16.203-11.158 16.203-21.304z" fill="#ffd064"/></g></svg>