<svg enable-background="new 0 0 100 100" height="512" viewBox="0 0 100 100" width="512" xmlns="http://www.w3.org/2000/svg"><path d="m70.5530853 5h-41.1061706c-5.0973244 0-9.229517 4.1321926-9.229517 9.2295179v71.5408936c0 5.097394 4.1321926 9.2295885 9.229517 9.2295885h41.1061707c5.0973282 0 9.2295151-4.1321945 9.2295151-9.2295914v-71.5408907c-.0000001-5.0973253-4.132187-9.2295179-9.2295152-9.2295179z" fill="#e6e9ef"/><path d="m24.519959 18.022257h50.960083v64.370628h-50.960083z" fill="#27a2db"/><g fill="#d5d6db"><path d="m56.7959137 11.0637569h-13.5918274c-.7447166 0-1.348526.6038094-1.348526 1.3485279 0 .7447948.6038094 1.3485279 1.348526 1.3485279h13.5918274c.7447166 0 1.348526-.6037331 1.348526-1.3485279 0-.7447185-.6038094-1.3485279-1.348526-1.3485279z"/><circle cx="61.464" cy="12.412" r="1.349"/><path d="m49.9999657 85.3415985c-1.809124 0-3.2757149 1.4665909-3.2757149 3.2757797 0 1.8091278 1.4665909 3.2757187 3.2757149 3.2757187 1.8091927 0 3.2757835-1.4665909 3.2757835-3.2757187 0-1.8091888-1.4665909-3.2757797-3.2757835-3.2757797z"/></g><path d="m35.172298 46.554005h29.655403v29.655403h-29.655403z" fill="#fff"/><path d="m37.498238 49.011787h5.918301v5.918301h-5.918301z" fill="#4d5c7d"/><path d="m38.2183 49.73185h4.478175v4.478175h-4.478175z" fill="#e6e9ef"/><path d="m39.186905 50.700455h2.540966v2.540966h-2.540966z" fill="#4d5c7d"/><path d="m56.583462 49.011787h5.918301v5.918301h-5.918301z" fill="#4d5c7d"/><path d="m57.303524 49.73185h4.478175v4.478175h-4.478175z" fill="#e6e9ef"/><path d="m58.272129 50.700455h2.540966v2.540966h-2.540966z" fill="#4d5c7d"/><path d="m37.498238 67.803375h5.918301v5.918301h-5.918301z" fill="#4d5c7d"/><path d="m38.2183 68.523438h4.478175v4.478175h-4.478175z" fill="#e6e9ef"/><path d="m39.186905 69.492043h2.540966v2.540966h-2.540966z" fill="#4d5c7d"/><path d="m56.583462 67.803375h5.918301v5.918301h-5.918301z" fill="#4d5c7d"/><path d="m57.303524 68.523438h4.478175v4.478175h-4.478175z" fill="#e6e9ef"/><g fill="#4d5c7d"><path d="m58.272129 69.492043h2.540966v2.540966h-2.540966z"/><path d="m53.50861 54.210026h1.30443v2.980426h-1.30443z"/><path d="m50.89975 57.968391h1.30443v2.980426h-1.30443z"/><path d="m46.398747 52.719811h1.30443v2.980426h-1.30443z"/><path d="m49.347786 51.970936h1.30443v1.87683h-1.30443z"/><path d="m52.478172 63.24202h1.30443v2.980426h-1.30443z"/><path d="m59.54261 59.891491h1.30443v2.980426h-1.30443z"/><path d="m41.218994 62.49691h2.129698v2.980426h-2.129698z"/><path d="m47.703175 61.751804h1.30443v2.571955h-1.30443z"/><path d="m46.398747 60.285175h1.30443v2.705987h-1.30443z"/><path d="m42.044262 57.360504h1.30443v2.705987h-1.30443z"/><path d="m41.125923 56.055016h.899463v1.865901h-.899463z" transform="matrix(0 1 -1 0 98.564 15.412)"/><path d="m37.76857 56.800125h.899463v1.865901h-.899463z" transform="matrix(-1 0 0 -1 76.437 115.466)"/><path d="m38.439465 58.525658h.899463v1.865901h-.899463z" transform="matrix(-1 0 0 -1 77.778 118.917)"/><path d="m52.204178 56.828976h1.30443v1.490213h-1.30443z"/><path d="m50 61.381706h1.30443v1.490213h-1.30443z"/><path d="m51.080849 63.678589h1.30443v1.490213h-1.30443z" transform="matrix(0 1 -1 0 116.157 12.691)"/><path d="m46.398747 70.762528h1.30443v1.490213h-1.30443z"/><path d="m52.478172 71.159523h1.30443v1.490213h-1.30443z"/><path d="m51.17374 70.146256h1.30443v1.490213h-1.30443z"/><path d="m44.633274 60.203713h1.30443v1.490213h-1.30443z"/><path d="m38.889198 60.893063h1.30443v1.490213h-1.30443z"/><path d="m49.065857 72.256508h1.30443v1.490213h-1.30443z"/><path d="m53.7826 72.256508h1.30443v1.490213h-1.30443z"/><path d="m53.977264 68.746933h1.30443v2.243262h-1.30443z"/><path d="m37.787251 64.652161h1.30443v1.490213h-1.30443z"/><path d="m60.813095 58.713501h1.30443v1.490213h-1.30443z"/><path d="m45.094315 51.22583h1.30443v1.490213h-1.30443z"/><path d="m55.092075 60.636601h1.30443v1.490213h-1.30443z"/><path d="m55.092075 65.477341h1.30443v1.093802h-1.30443z"/><path d="m53.7826 66.460808h1.30443v1.093802h-1.30443z"/><path d="m59.54261 64.732231h1.30443v1.490213h-1.30443z"/><path d="m56.223217 61.191547h1.30443v1.490213h-1.30443z"/><path d="m56.65131 56.987968h1.30443v1.490213h-1.30443z"/><path d="m59.666882 57.223286h1.30443v1.490213h-1.30443z"/><path d="m61.129482 62.681759h1.30443v1.490213h-1.30443z"/><path d="m60.97131 55.918617h1.30443v1.490213h-1.30443z"/><path d="m55.346878 57.968391h1.30443v1.490213h-1.30443z"/><path d="m53.7826 61.751804h1.30443v1.490213h-1.30443z"/><path d="m45.285488 64.652161h1.30443v1.490213h-1.30443z"/><path d="m47.383453 56.987968h2.363357v2.363357h-2.363357z"/><path d="m45.46257 68.796166h1.181679v2.363357h-1.181679z"/><path d="m50.446358 53.33688h2.363357v2.363357h-2.363357z"/><path d="m49.718071 67.341759h2.363357v2.363357h-2.363357z"/><path d="m47.825928 65.826035h2.363357v2.363357h-2.363357z"/><path d="m57.303524 62.49691h2.363357v2.363357h-2.363357z"/><path d="m51.628037 49.011787h1.635069v1.635069h-1.635069z"/><path d="m47.383453 48.914314h1.635069v1.635069h-1.635069z"/><path d="m53.130386 50.408295h1.635069v1.635069h-1.635069z"/></g><ellipse cx="49.7" cy="33.866" fill="#fcd462" rx="10.075" ry="10.075" transform="matrix(.987 -.16 .16 .987 -4.783 8.398)"/><ellipse cx="49.7" cy="33.866" fill="#f7be56" rx="8.119" ry="8.119" transform="matrix(.987 -.16 .16 .987 -4.783 8.398)"/><path d="m53.5619049 34.3890457c-.290535-.3819809-.7060394-.6521759-1.2465057-.8106651.4185524-.2072601.7314606-.4795303.9386826-.8168068.2072601-.3372726.3108749-.6968842.3108749-1.0789032 0-.4104176-.1168327-.8035851-.3504601-1.1794643-.2336617-.3758812-.5567398-.654213-.9691887-.8350716-.3124199-.1369438-.7031021-.2215748-1.1705399-.2547932v-1.1129494h-1.1731758v1.0964909h-.5932732v-1.0964909h-1.1731377v1.0964909h-.4968567v-.0027504h-1.3119659v1.0515232h.9237328v6.8326607h-.9237328v1.0514832h.9237328v.0030136h.8850899v1.0983925h1.1731377v-1.0983925h.5932732v1.0983925h1.1731758v-1.1082611c.3903809-.0189056.7320251-.0653076 1.0242538-.1394653.3921127-.0995827.7182388-.2468834.9783058-.4419441.260067-.1950569.4784737-.4724083.6552658-.8320198.176754-.3596077.265152-.7487106.265152-1.167263 0-.5201303-.1452675-.9712259-.4358406-1.3532068zm-5.1292953-3.937664h1.7859573c.6420479 0 1.0951347.0416546 1.3593063.1249657.2640953.083313.467289.2377319.6095085.4632607.1422539.2255268.2133598.4866104.2133598.7832832 0 .31287-.0761909.5729752-.2285767.7801971s-.378933.3555794-.6796722.4449921c-.227562.0690765-.603405.103611-1.1276436.103611h-1.9322395v-2.7003098zm4.1631927 6.0436477c-.1178474.2173958-.2681999.3829994-.4510956.4967804-.1828537.113781-.4104156.1950607-.6826477.2437935-.1544571.0284767-.422657.0427132-.8046036.0427132h-.7558632-.5932732-.8757095v-3.0721245h2.0663605c.5689049 0 1.0047073.0497894 1.3074837.149334.3027382.0995445.5394135.2722702.7101059.5180969.1706505.2458687.2559967.5354233.2559967.8686295 0 .2844352-.0589066.5353851-.176754.752777z" fill="#fcd462"/><path d="m49.6857758 41.1892319h-.0001259c-.2639465-.0003853-.5300598-.0150757-.7911949-.0436935-.0717964-.0079193-.1236649-.0724373-.1157455-.1443634.0077934-.0718002.0711594-.1248169.1443634-.1157455.2516785.0275955.5083427.0417747.7628326.04216.0723076.0001259.1308212.0587654.1306915.1309471-.0001259.0721816-.0586395.1306953-.1308212.1306953zm.7773933-.0398598c-.0661774 0-.1228981-.0499535-.1299248-.1171532-.0076675-.0717964.0444565-.1361885.1163826-.1437263.2528305-.0266991.5066795-.0674515.754528-.1212387.0705223-.0148201.1404037.0295105.1556053.1001625.0153313.0706482-.0295105.140274-.1001587.1556053-.2570457.0557022-.5203514.0979881-.7826347.1255836-.0045967.0005112-.0091972.0007668-.0137977.0007668zm-2.3223457-.129673c-.0093269 0-.0187798-.0010223-.0283623-.003067-.256916-.0567207-.5137062-.1283951-.7634697-.2129669-.0683479-.0232506-.1050148-.097477-.0818901-.1659546.0232506-.068222.0976067-.1051445.1659546-.0818939.2405663.0816383.4881554.1506271.7358742.2053032.0705223.0155869.1151085.0853424.0995216.1559906-.0135422.0610694-.0675812.1025886-.1276283.1025886zm3.8417472-.2000656c-.0548058 0-.1057816-.0346222-.1240501-.0893021-.0228691-.0686035.0140533-.142704.082531-.1655693.2415848-.0807419.4806175-.1755371.7107048-.2817039.0659218-.0306587.1433411-.0016594.1736183.0640068.0302811.0656662.0016632.1433411-.064003.1736183-.2386475.1101265-.4867516.2083702-.7372818.2921791-.0137939.0046005-.0277214.0067711-.0415192.0067711zm-5.3142623-.2985649c-.0183945 0-.0371742-.0039597-.0550613-.0122643-.2381363-.1108932-.4733353-.2362213-.6990814-.3727913-.0618324-.0373039-.0816345-.1177902-.0442009-.1796265.0371742-.0617065.1174049-.0817642.1796227-.0442009.2176971.131588.4444618.2525711.6740417.3595047.0655365.0304031.0938988.1083374.0633659.173748-.0221024.0476533-.0693703.0756303-.1186867.0756303zm6.7266044-.351841c-.0444603 0-.0877686-.0226135-.1122971-.0634918-.037178-.0619621-.0171204-.1423225.0448418-.1795006.2174416-.1304359.4305382-.2744179.6332855-.4279785.0574913-.0438232.139637-.0324516.1832008.0252953.0436935.0576172.0323219.139637-.0252953.1832008-.2101593.1593094-.4311752.3086586-.6565361.4438248-.0210799.0126457-.0443305.01865-.0671996.01865zm-8.0562858-.4525108c-.0275955 0-.0555725-.0086861-.0792084-.0268288-.2093925-.1598206-.4122696-.3329315-.6030083-.5142174-.0523796-.0496979-.0545502-.1326103-.0047264-.1848602.0496979-.0523834.1326103-.054554.184864-.0047302.1840935.1747704.3796883.3416214.581543.4958229.0574913.0438194.0684776.1259651.0246582.1833305-.0258064.0337258-.0646477.0514832-.1041221.0514832zm9.2956466-.4864922c-.0347519 0-.0693741-.0137978-.0951805-.0410118-.0495682-.0526352-.047142-.1354218.0053673-.1849899.1848602-.1742592.3621864-.360527.5272484-.5534401.0467567-.0550613.1294174-.0613213.1843529-.0144348.0549316.0468864.0614471.1295433.0144348.1843529-.1710663.2001915-.3549042.3932304-.5464134.5738792-.0252953.0238876-.0576172.0356445-.0898095.0356445zm-10.4223251-.5844841c-.037178 0-.0741005-.0157127-.0999069-.0462494-.170681-.2014694-.3319092-.413929-.4793396-.6313667-.0404968-.0597916-.02491-.1410446.0348778-.1816711.0597916-.0404968.1411705-.0251656.181797.0350075.1420631.2096443.2976723.4144402.4622192.6088829.0467606.055191.0398598.137722-.0152016.1843529-.0246582.0208243-.0546798.0310439-.0844459.0310439zm11.4318504-.5973854c-.025425 0-.0511017-.007412-.0735855-.0227432-.0596657-.0407524-.0751228-.1221352-.0343666-.181797.1435966-.2102852.276844-.4300232.3961678-.6534691.0338554-.0637512.1130638-.0876427.1770706-.0536575.0636215.0339813.0877686.1133194.0536575.1770706-.1236687.2316208-.261898.4595375-.4107361.6774864-.0254211.037178-.0664329.0571098-.1082077.0571098zm-12.3037834-.6900101c-.0468864 0-.0922432-.0252953-.1157494-.0696297-.123539-.2334099-.2353249-.4755058-.3324203-.7197762-.0265732-.06707.006134-.1432114.0733337-.1699142.0673256-.0263176.1430855.006134.1699142.0733337.0935173.2354507.2013435.4688606.3204117.6939697.0338554.0638771.0094528.1430855-.0544243.1768112-.0195464.0103494-.0404967.0152055-.0610656.0152055zm13.036335-.6805572c-.0163536 0-.0328331-.003067-.0488014-.0094528-.0670738-.0269585-.0995216-.1030998-.072567-.1701698.0947952-.2358398.1775818-.4792137.2459297-.723484.0195465-.0695.0927505-.1094856.1612282-.0907059.0696297.0194206.1102562.0916023.0907059.1612282-.0709038.2533417-.1567535.5059128-.255127.7505646-.0205688.0511016-.0696258.0820197-.1213684.0820197zm-13.6108551-.7644921c-.0573616 0-.1099968-.0380707-.1259689-.0960693-.0700073-.2546196-.1268616-.5151138-.1687622-.774456-.0115013-.0712891.0369186-.1384888.1083374-.1499863.0714149-.0125198.1383591.0370483.1499825.1083374.0403709.2498894.0951805.5011864.1626358.7466049.0191612.0697556-.0217209.1416817-.0913467.1608429-.0116273.0031968-.0233804.0047264-.0348779.0047264zm14.030407-.7321662c-.0070267 0-.0143089-.0005112-.0214653-.0017891-.0712852-.0117531-.1195793-.0792084-.1076965-.1503677.0413933-.2500191.0696259-.5055313.0839348-.75951.0039597-.0721817.066433-.1269913.1378479-.1232834.0721817.0039597.1273727.0657921.1232872.1378479-.0146942.2634315-.0439491.5283966-.0870018.7876129-.010605.0641364-.0660516.1094894-.1289063.1094894zm-14.2785073-.8023072c-.0691185 0-.1268616-.0541687-.1305695-.1239243-.0067711-.1287766-.0100899-.2585793-.0100899-.3891449 0-.1352921.0037041-.2696915.0109863-.4033241.0038338-.0720558.064518-.1312065.137722-.1234131.072052.0038338.1273689.0655403.1234093.137722-.0070267.1287766-.0104752.2585754-.0104752.3890152 0 .1259689.0033226.2511673.0098381.3753471.0037041.0721817-.0517426.1337624-.1237946.1375923-.0024298.0001298-.00473.0001298-.0070265.0001298zm14.3661461-.7496719c-.0692444 0-.1269875-.0542984-.1305656-.1243057-.0127754-.2542343-.0394783-.5098763-.0793381-.7600212-.0113678-.0712891.037178-.1383591.108593-.1497307.0707779-.0114975.1383591.0373039.1497307.108593.0413933.259346.0691147.524437.0824013.7881279.0035782.072052-.0519943.133503-.124176.137207-.0021745.0001297-.0044709.0001297-.0066453.0001297zm-14.281189-.8025627c-.0070267 0-.0140533-.0005112-.0212097-.0016594-.0714149-.0117569-.1197052-.0789566-.1080818-.1502419.0426712-.2604942.1000328-.5208626.1702995-.7740726.0192909-.0696278.0917282-.1096153.1611023-.0910912.0696259.0194187.1103783.0914726.0910873.1611004-.0678368.2441406-.1231537.495182-.1641655.7462234-.0106048.0642586-.0660476.1097413-.1290321.1097413zm14.0361557-.7325516c-.0574913 0-.1101265-.0382004-.1260986-.0963287-.0671959-.2456741-.1484489-.4895611-.2415848-.7250137-.0265732-.0671997.0063896-.1432152.0734596-.1697884.0669441-.0264454.1432152.0063877.1697884.0734596.0965843.2443962.1810303.4974804.2507858.7523537.0190353.0696278-.0219765.1415558-.091732.160717-.0114975.003067-.0231209.0046005-.0346184.0046005zm-13.6200561-.765131c-.0162239 0-.0325775-.0029373-.0485458-.009325-.0670738-.0268288-.0997772-.102972-.0729485-.1700439.0976028-.2443962.2099037-.4863663.3336983-.7188816.0338554-.063879.1133194-.0880241.1769409-.0540409.0637512.0339832.0880241.1131916.054039.1769409-.1193237.2242126-.2275314.4573669-.3216858.6930752-.020443.0511035-.0696297.0822753-.1214981.0822753zm13.0491142-.6810665c-.0470161 0-.092495-.025423-.1158752-.0698814-.1183014-.2244682-.2504005-.4451027-.3924675-.6557713-.0403709-.0599174-.0246544-.1412983.0352631-.1816692s.1411705-.0246563.1816673.0352612c.1474304.218462.284256.447401.407032.6802998.0337257.0638771.0091972.1429577-.0548096.1766853-.0194168.0102214-.0402412.0150756-.0608101.0150756zm-12.3192444-.6911583c-.0252953 0-.0509758-.0072823-.0734596-.0226135-.0597916-.0406265-.0752487-.1220074-.0346222-.181797.1480675-.2176952.3096809-.4296417.4803619-.6302185.0470161-.0550632.1294174-.0615788.1844788-.0148201.0549355.0468864.0615807.1294155.0148201.1844788-.164547.1932945-.3204117.3978329-.4632416.6077347-.0252952.0371779-.0664329.0572356-.1083374.0572356zm11.4498635-.5980263c-.0373039 0-.0742264-.0157146-.1000328-.0463753-.1639099-.1940613-.3402138-.3812237-.5239258-.556633-.0522537-.0499516-.0541687-.1327381-.0043449-.1849899.0499535-.0522518.1328659-.0540409.1849937-.004343.1904831.181797.3731728.3759842.543087.5770721.0466309.055191.0397339.137722-.0154572.1843529-.0245285.0208244-.0545501.0309162-.08432.0309162zm-10.442379-.5860157c-.0346222 0-.0692444-.01367-.0950508-.0408821-.049572-.0525074-.0473976-.135294.0051079-.1849899.1912498-.1810303.3945122-.3536282.6040306-.5130692.0573616-.0438194.139637-.0325775.1833305.0249138.0436935.0574894.0325775.1395092-.0249138.1833286-.2021103.1538181-.3980865.3202839-.5825653.4949265-.0252953.0238914-.0576172.0357723-.0899391.0357723zm9.3174896-.4870052c-.0277214 0-.0557022-.0088158-.079464-.0269566-.2013435-.1544571-.4135475-.299715-.6306038-.4316883-.0617065-.0375595-.0813789-.1180458-.0438194-.1797523.0375595-.0615768.1179199-.0812511.1797523-.0438194.2251053.1368256.4451027.2874508.6538544.4475288.0573616.044075.068222.1260948.0242729.1834564-.0258064.0335999-.0646438.0512314-.1039924.0512314zm-8.0799217-.4540444c-.0443306 0-.0876389-.0224857-.1121674-.0632401-.0373039-.0619621-.0173759-.1423187.0444565-.1796246.2257462-.1360607.4613266-.2611332.7003593-.371769.0656662-.0305347.1434708-.0017891.1736221.0637493.0304031.0655384.0017853.143343-.0637512.1736202-.2303429.1066761-.4574928.2272778-.6750641.3584843-.0212058.0127756-.0444564.0187799-.0674552.0187799zm6.7517738-.3532447c-.018528 0-.0374336-.0039616-.0553207-.0122662-.230217-.1076965-.4687347-.2038975-.7087898-.2859173-.0683479-.0233784-.1048851-.0977325-.0815086-.1660824.0232544-.0683498.0977325-.104887.1660843-.0815086.2489967.084959.4963303.1847363.7351074.2963943.0654106.0306606.0936432.108593.0631104.1740036-.0222284.0475255-.0693704.0753766-.118683.0753766zm-5.3409653-.3000985c-.0546799 0-.105526-.0344944-.1239204-.0890465-.0231247-.0684776.0136681-.142704.0821457-.165699.2493782-.0840645.5065536-.1552238.7643623-.2116928.0702667-.0158405.1401482.0290012.155735.0997772.0154572.0705223-.029129.140276-.0997772.155735-.2484856.0544243-.4963303.1231575-.7367668.2040272-.0139275.0047265-.0279808.0068989-.0417786.0068989zm3.869854-.2015991c-.0094528 0-.0190353-.0010223-.0286179-.0031948-.2474632-.055191-.5009308-.097477-.7536316-.1255836-.0717964-.008049-.123539-.0726929-.1156197-.1444912.0081787-.071928.0747375-.1217518.1444931-.1156197.2621536.0292568.5250778.0730762.7817383.1304379.0705223.0157146.1149788.085598.0991402.1561184-.0135421.0609397-.0675849.102333-.1275024.102333zm-2.3510895-.1313343c-.0660515 0-.122776-.0498238-.1299286-.1168957-.0076675-.0717983.0443306-.1363163.1161308-.1439819.2610054-.027977.5272484-.0421581.7910614-.0421581h.0290031c.0723076 0 .1308212.0585117.1308212.1308212s-.0585136.1308231-.1308212.1308231h-.0290031c-.2546158 0-.5114059.01367-.7632103.0406265-.0047301.0005093-.0094566.0007649-.0140533.0007649z" fill="#fcd462"/></svg>